<svg xmlns="http://www.w3.org/2000/svg" width="512" height="512" viewBox="0 0 512 512" role="img" aria-label="Pixel Quest">
  <defs>
    <linearGradient id="bg" x1="0" y1="0" x2="0" y2="1">
      <stop offset="0" stop-color="#141436"/>
      <stop offset="0.55" stop-color="#3a1d57"/>
      <stop offset="1" stop-color="#8a3a32"/>
    </linearGradient>
    <linearGradient id="star" x1="0" y1="0" x2="0" y2="1">
      <stop offset="0" stop-color="#fff7c4"/>
      <stop offset="0.5" stop-color="#ffe14d"/>
      <stop offset="1" stop-color="#ff9b2f"/>
    </linearGradient>
  </defs>
  <rect width="512" height="512" rx="96" fill="url(#bg)"/>
  <g opacity="0.9" fill="#9bf6ff">
    <rect x="92" y="120" width="10" height="10"/>
    <rect x="410" y="96" width="9" height="9"/>
    <rect x="360" y="180" width="7" height="7"/>
    <rect x="120" y="220" width="7" height="7"/>
  </g>
  <polygon
    points="256,106 294,204 399,210 317,276 344,377 256,320 168,377 195,276 113,210 218,204"
    fill="url(#star)" stroke="#7a3cff" stroke-width="16" stroke-linejoin="round"/>
  <ellipse cx="226" cy="222" rx="20" ry="30" fill="#ffffff" opacity="0.55"/>
  <g fill="#5a2bb8">
    <ellipse cx="232" cy="266" rx="11" ry="19"/>
    <ellipse cx="284" cy="266" rx="11" ry="19"/>
  </g>
</svg>
